<?xml version="1.0" encoding="UTF-8" standalone="no"?><!DOCTYPE svg PUBLIC "-//W3C//DTD SVG 1.1//EN" "http://www.w3.org/Graphics/SVG/1.1/DTD/svg11.dtd"><svg width="100%" height="100%" viewBox="0 0 500 500" version="1.1" xmlns="http://www.w3.org/2000/svg" xmlns:xlink="http://www.w3.org/1999/xlink" xml:space="preserve" xmlns:serif="http://www.serif.com/" style="fill-rule:evenodd;clip-rule:evenodd;stroke-linejoin:round;stroke-miterlimit:1.41421;"><g><path d="M151.472,358.676c0.038,0 0.083,-0.009 0.137,-0.029c0.338,-0.129 3.27,-1.318 3.27,-1.318c0,0 0.028,-0.015 0.039,-0.02c0.094,-0.019 0.21,-0.095 0.334,-0.226c0.022,-0.021 0.041,-0.044 0.058,-0.069c0.032,-0.036 0.062,-0.067 0.093,-0.109l18.607,-25.817c0.256,-0.354 0.51,-0.771 0.191,-0.997l-3.103,-2.14c-0.377,-0.252 -0.913,0.625 -1.169,0.98l-17.195,23.824c-0.023,0.032 -0.039,0.067 -0.061,0.101c-0.059,0.053 -0.126,0.169 -0.197,0.392c-0.013,0.037 -0.019,0.069 -0.029,0.103c-0.017,0.06 -0.033,0.112 -0.051,0.185l-1.07,4.615l-0.016,0.071c0,0 -0.103,0.452 0.162,0.455l0,-0.001Z" style="fill:#ddd;"/><path d="M135.54,330.703c-2.805,0 -5.103,2.307 -5.103,5.115l0,30.074c0,2.807 2.298,5.116 5.103,5.116l30.239,0c2.806,0 5.104,-2.309 5.104,-5.116l0,-18.712l-2.79,4.588l0,14.124c0,1.314 -1.011,2.326 -2.314,2.326l-30.239,0c-1.303,0 -2.313,-1.012 -2.313,-2.326l0,-30.074c0,-1.315 1.01,-2.325 2.313,-2.325l22.972,0l1.697,-2.79l-24.669,0Z" style="fill:#ddd;fill-opacity:0.956863;fill-rule:nonzero;"/><path d="M23.573,229.748c-1.096,0 -2.016,0.918 -2.016,2.015l0,32.475c0,1.096 0.92,2.017 2.016,2.017l54.041,0c1.097,0 2.016,-0.921 2.016,-2.017l0,-32.475c0,-1.097 -0.919,-2.015 -2.016,-2.015l-54.041,0Zm0.397,2.413l53.246,0l0,31.681l-53.246,0l0,-31.681Z" style="fill:#ddd;fill-opacity:0.956863;fill-rule:nonzero;"/><path d="M128.469,236.94c-1.096,0 -2.016,0.919 -2.016,2.016l0,25.486c0,1.097 0.92,2.018 2.016,2.018l43.311,0c1.097,0 2.016,-0.921 2.016,-2.018l0,-25.486c0,-1.097 -0.919,-2.016 -2.016,-2.016l-43.311,0Zm0.398,2.414l42.516,0l0,24.693l-42.516,0l0,-24.693Z" style="fill:#ddd;fill-opacity:0.956863;fill-rule:nonzero;"/><path d="M39.802,270.793l21.48,0c0.852,0 1.537,0.657 1.537,1.474c0,0.816 -0.685,1.473 -1.537,1.473l-21.48,0c-0.851,0 -1.537,-0.657 -1.537,-1.473c0,-0.817 0.686,-1.474 1.537,-1.474Z" style="fill:#ddd;fill-opacity:0.956863;fill-rule:nonzero;"/><path d="M127.989,270.793l44.327,0c0.852,0 1.537,0.657 1.537,1.474c0,0.816 -0.685,1.473 -1.537,1.473l-44.327,0c-0.85,0 -1.536,-0.657 -1.536,-1.473c0,-0.817 0.686,-1.474 1.536,-1.474Z" style="fill:#ddd;fill-opacity:0.956863;fill-rule:nonzero;"/><path d="M127.989,229.661l44.327,0c0.852,0 1.537,0.657 1.537,1.473c0,0.817 -0.685,1.474 -1.537,1.474l-44.327,0c-0.85,0 -1.536,-0.657 -1.536,-1.474c0,-0.816 0.686,-1.473 1.536,-1.473Z" style="fill:#ddd;fill-opacity:0.956863;fill-rule:nonzero;"/><path d="M27.73,450.128c0,-5.902 2.35,-11.572 6.517,-15.739c4.177,-4.177 9.847,-6.527 15.749,-6.527c5.902,0 11.562,2.35 15.739,6.527c4.177,4.167 6.517,9.837 6.517,15.739c0,5.902 -2.34,11.572 -6.517,15.739c-4.177,4.177 -9.837,6.528 -15.739,6.528c-5.902,0 -11.572,-2.351 -15.749,-6.528c-4.167,-4.167 -6.517,-9.837 -6.517,-15.739Zm2.724,0c0,-5.176 2.058,-10.149 5.72,-13.812c3.662,-3.672 8.636,-5.73 13.822,-5.73c5.176,0 10.15,2.058 13.812,5.73c3.662,3.663 5.72,8.636 5.72,13.812c0,5.176 -2.058,10.15 -5.72,13.812c-3.662,3.662 -8.636,5.731 -13.812,5.731c-5.186,0 -10.16,-2.069 -13.822,-5.731c-3.662,-3.662 -5.72,-8.636 -5.72,-13.812Z" style="fill:#ddd;"/><path d="M27.73,450.128c0,-5.902 2.35,-11.572 6.517,-15.739c4.177,-4.177 9.847,-6.527 15.749,-6.527c5.902,0 11.562,2.35 15.739,6.527c4.177,4.167 6.517,9.837 6.517,15.739c0,5.902 -2.34,11.572 -6.517,15.739c-4.177,4.177 -9.837,6.528 -15.739,6.528c-5.902,0 -11.572,-2.351 -15.749,-6.528c-4.167,-4.167 -6.517,-9.837 -6.517,-15.739Zm2.724,0c0,-5.176 2.058,-10.149 5.72,-13.812c3.662,-3.672 8.636,-5.73 13.822,-5.73c5.176,0 10.15,2.058 13.812,5.73c3.662,3.663 5.72,8.636 5.72,13.812c0,5.176 -2.058,10.15 -5.72,13.812c-3.662,3.662 -8.636,5.731 -13.812,5.731c-5.186,0 -10.16,-2.069 -13.822,-5.731c-3.662,-3.662 -5.72,-8.636 -5.72,-13.812Z" style="fill:#ddd;"/><path d="M41.559,439.8l-1.851,1.853l8.454,8.454l-8.454,8.455l1.851,1.852l8.456,-8.454l8.453,8.454l1.853,-1.852l-8.455,-8.455l8.455,-8.454l-1.853,-1.853l-8.453,8.456l-8.456,-8.456Z" style="fill:#ddd;fill-opacity:0.956863;fill-rule:nonzero;"/><circle cx="32.103" cy="137.843" r="2.466" style="fill:#ddd;fill-opacity:0.956863;"/><circle cx="32.103" cy="150.091" r="2.466" style="fill:#ddd;fill-opacity:0.956863;"/><circle cx="32.103" cy="162.814" r="2.466" style="fill:#ddd;fill-opacity:0.956863;"/><path d="M43.034,135.946l27.253,0c1.079,0 1.949,0.869 1.949,1.949c0,1.08 -0.87,1.949 -1.949,1.949l-27.253,0c-1.08,0 -1.949,-0.869 -1.949,-1.949c0,-1.08 0.869,-1.949 1.949,-1.949Z" style="fill:#ddd;fill-opacity:0.956863;fill-rule:nonzero;"/><path d="M43.034,148.264l27.253,0c1.079,0 1.949,0.869 1.949,1.949c0,1.08 -0.87,1.949 -1.949,1.949l-27.253,0c-1.08,0 -1.949,-0.869 -1.949,-1.949c0,-1.08 0.869,-1.949 1.949,-1.949Z" style="fill:#ddd;fill-opacity:0.956863;fill-rule:nonzero;"/><path d="M43.034,160.825l27.253,0c1.079,0 1.949,0.869 1.949,1.949c0,1.079 -0.87,1.949 -1.949,1.949l-27.253,0c-1.08,0 -1.949,-0.87 -1.949,-1.949c0,-1.08 0.869,-1.949 1.949,-1.949Z" style="fill:#ddd;fill-opacity:0.956863;fill-rule:nonzero;"/><path d="M152.782,156.332l9.902,-11.388c1.339,-1.546 2.079,-3.522 2.079,-5.574c0,-2.454 -1.068,-4.795 -2.922,-6.416c-1.536,-1.339 -3.522,-2.079 -5.564,-2.079c-2.464,0 -4.805,1.067 -6.416,2.922l-13.17,15.146l-0.89,1.021l-0.02,-0.017l-1.488,1.713c-1.789,2.051 -2.773,4.683 -2.773,7.409c0,3.278 1.415,6.388 3.888,8.542c1.742,1.508 3.896,2.454 6.191,2.707c0.403,0.038 0.815,0.066 1.218,0.066c3.278,0 6.397,-1.424 8.542,-3.887l0,-0.01l14.294,-16.242l0.89,-1.021l2.042,1.799l-0.899,1.011l-14.285,16.252c-2.66,3.053 -6.528,4.814 -10.584,4.814c-0.506,0 -1.002,-0.028 -1.508,-0.084c-2.848,-0.309 -5.527,-1.48 -7.69,-3.353c-3.054,-2.67 -4.815,-6.538 -4.815,-10.594c0,-3.382 1.218,-6.641 3.438,-9.199l8.617,-9.91l0.899,-1.021l0.014,0.012l6.037,-6.943c2.136,-2.445 5.227,-3.85 8.468,-3.85c2.698,0 5.311,0.974 7.353,2.754c2.445,2.126 3.85,5.217 3.85,8.458c0,2.707 -0.975,5.321 -2.745,7.353l-13.17,15.146l-0.899,1.031l-0.003,-0.003l-1.299,1.53c-1.545,1.807 -3.812,2.856 -6.191,2.856c-1.93,0 -3.794,-0.683 -5.264,-1.929c-1.818,-1.546 -2.867,-3.812 -2.857,-6.201c0,-1.92 0.684,-3.794 1.929,-5.255l11.353,-13.404l0.871,-1.039l2.079,1.751l-0.88,1.04l-11.353,13.404c-0.833,0.983 -1.283,2.22 -1.283,3.503c-0.009,1.592 0.693,3.1 1.902,4.131c0.974,0.824 2.22,1.283 3.503,1.283c1.583,0 3.091,-0.693 4.121,-1.901l4.552,-5.349l0.872,-1.04l0.064,0.055Z" style="fill:#ddd;fill-rule:nonzero;"/><path d="M335.51,64.131l-1.598,-1.272c4.295,-3.982 6.907,-8.354 7.835,-13.119l-0.103,0c-0.825,0 -1.564,-0.147 -2.217,-0.44c-2.886,-0.914 -4.33,-2.774 -4.33,-5.58c0,-1.241 0.31,-2.415 0.928,-3.525c1.375,-2.219 3.282,-3.329 5.722,-3.329c1.993,0 3.677,0.702 5.051,2.105c1.478,1.404 2.217,3.182 2.217,5.336c0,3.198 -1.169,6.608 -3.506,10.23c-2.405,3.883 -5.738,7.082 -9.999,9.594Z" style="fill:#ddd;fill-rule:nonzero;"/><path d="M354.52,64.352l-1.598,-1.272c4.296,-3.982 6.907,-8.354 7.835,-13.119l-0.103,0c-0.825,0 -1.564,-0.147 -2.217,-0.44c-2.886,-0.914 -4.329,-2.774 -4.329,-5.58c0,-1.241 0.309,-2.415 0.927,-3.525c1.375,-2.219 3.282,-3.329 5.722,-3.329c1.993,0 3.677,0.702 5.051,2.105c1.478,1.404 2.217,3.182 2.217,5.336c0,3.198 -1.168,6.608 -3.505,10.23c-2.406,3.883 -5.739,7.082 -10,9.594Z" style="fill:#ddd;fill-rule:nonzero;"/><path d="M40.517,67.286l0,-30.174l-3.979,-0.521l0,-2.037l5.921,0c1.043,0 2.385,-0.063 4.027,-0.189c1.515,-0.127 2.636,-0.19 3.363,-0.19c4.105,0 7.082,0.679 8.929,2.037c1.847,1.358 2.771,3.332 2.771,5.921c0,2.211 -0.608,4.129 -1.824,5.755c-1.215,1.627 -2.944,2.661 -5.187,3.103c2.969,-0.095 5.298,0.616 6.987,2.132c1.69,1.515 2.535,3.552 2.535,6.11c0,3.158 -1.113,5.748 -3.34,7.769c-2.226,2.021 -5.865,3.031 -10.918,3.031c-0.6,0 -1.563,-0.031 -2.89,-0.094c-1.642,-0.127 -3.189,-0.19 -4.642,-0.19l-5.826,0l0,-2.037l4.073,-0.426Zm3.885,-17.1c0.505,0.031 1.499,0.047 2.984,0.047l2.842,0c2.4,0 4.232,-0.616 5.495,-1.847c1.263,-1.232 1.894,-3.016 1.894,-5.353c0,-2.305 -0.624,-3.995 -1.871,-5.068c-1.247,-1.074 -3.387,-1.611 -6.418,-1.611c-1.137,0 -2.305,0.063 -3.505,0.19c-0.758,0.063 -1.232,0.094 -1.421,0.094l0,13.548Zm0,17.195c0.821,0.253 2.605,0.379 5.352,0.379c3.537,0 6.095,-0.671 7.674,-2.014c1.579,-1.342 2.368,-3.276 2.368,-5.802c0,-2.527 -0.679,-4.366 -2.036,-5.519c-1.358,-1.153 -3.553,-1.729 -6.585,-1.729l-3.505,0c-1.705,0 -2.795,0.016 -3.268,0.048l0,14.637Z" style="fill:#ddd;fill-rule:nonzero;"/><path d="M237.593,66.64l0,-29.928l-3.852,-0.517l0,-2.02l11.792,0l0,2.02l-4.087,0.517l0,13.202l17.947,0l0,-13.202l-3.9,-0.517l0,-2.02l11.652,0l0,2.02l-3.853,0.517l0,29.928l3.853,0.422l0,2.021l-11.699,0l0,-2.021l3.947,-0.422l0,-14.236l-17.947,0l0,14.236l4.134,0.422l0,2.021l-11.98,0l0,-2.021l3.993,-0.422Z" style="fill:#ddd;fill-rule:nonzero;"/><path d="M149.347,37.267c-1.773,0 -2.66,-0.936 -2.66,-2.807c0,-0.953 0.279,-1.733 0.838,-2.34c0.558,-0.607 1.313,-0.911 2.265,-0.911c0.985,0 1.691,0.271 2.118,0.813c0.427,0.541 0.64,1.206 0.64,1.994c0,1.018 -0.271,1.814 -0.812,2.389c-0.542,0.575 -1.322,0.862 -2.34,0.862l-0.049,0Zm-1.576,29.995l0,-21.573l-3.842,-0.837l0,-2.217l6.748,-0.788l0.098,0l0.985,0.788l0,24.676l4.285,0.345l0,2.117l-12.608,0l0,-2.117l4.334,-0.394Z" style="fill:#ddd;fill-rule:nonzero;"/><path d="M264.586,137.026c0.786,0.789 0.786,2.067 0,2.854l-24.065,24.065c-0.787,0.786 -2.065,0.786 -2.854,0c-0.787,-0.789 -0.787,-2.067 0,-2.854l24.066,-24.065c0.787,-0.786 2.064,-0.786 2.853,0Z" style="fill:#ddd;fill-rule:nonzero;"/><path d="M237.667,137.026c0.789,-0.786 2.067,-0.786 2.854,0l24.065,24.065c0.786,0.787 0.786,2.065 0,2.854c-0.789,0.786 -2.066,0.786 -2.853,0l-24.066,-24.065c-0.787,-0.787 -0.787,-2.065 0,-2.854Z" style="fill:#ddd;fill-rule:nonzero;"/></g><path d="M422.13,329.07l57.29,0c1.41,0 2.77,0.56 3.77,1.56c1,1 1.56,2.36 1.56,3.77l0,32.19c0,1.42 -0.56,2.77 -1.56,3.77c-1,1 -2.36,1.57 -3.77,1.57l-39.809,0l-17.481,0c-1.41,0 -2.77,-0.57 -3.77,-1.57c-1,-1 -1.56,-2.35 -1.56,-3.77l0,-32.19c0,-1.41 0.56,-2.77 1.56,-3.77c1,-1 2.36,-1.56 3.77,-1.56Zm0,2.7l57.29,0c0.7,0 1.37,0.28 1.86,0.77c0.49,0.5 0.77,1.17 0.77,1.86l0,32.19c0,0.7 -0.28,1.37 -0.77,1.86c-0.49,0.5 -1.16,0.78 -1.86,0.78l-57.29,0c-0.69,0 -1.36,-0.28 -1.86,-0.78c-0.49,-0.49 -0.77,-1.16 -0.77,-1.86l0,-32.19c0,-0.69 0.28,-1.36 0.77,-1.86c0.5,-0.49 1.17,-0.77 1.86,-0.77Z" style="fill:#585858;fill-opacity:0.882353;"/><path d="M436.941,350.629c0,-3.611 1.437,-7.079 3.989,-9.639c2.551,-2.551 6.019,-3.989 9.63,-3.989c3.611,0 7.079,1.438 9.63,3.989c2.552,2.56 3.989,6.028 3.989,9.639c0,3.612 -1.437,7.071 -3.989,9.631c-2.551,2.551 -6.019,3.989 -9.63,3.989c-3.611,0 -7.079,-1.438 -9.63,-3.989c-2.552,-2.56 -3.989,-6.019 -3.989,-9.631Zm2.425,0c0,-2.973 1.177,-5.821 3.279,-7.923c2.094,-2.093 4.95,-3.279 7.915,-3.279c2.965,0 5.821,1.186 7.915,3.279c2.102,2.102 3.279,4.95 3.279,7.923c0,2.965 -1.177,5.813 -3.279,7.915c-2.094,2.093 -4.95,3.279 -7.915,3.279c-2.965,0 -5.821,-1.186 -7.915,-3.279c-2.102,-2.102 -3.279,-4.95 -3.279,-7.915Z" style="fill:#585858;fill-opacity:0.882353;"/><path d="M467.32,334.035l9.294,0c0.573,0 1.129,0.228 1.534,0.632c0.413,0.413 0.64,0.97 0.64,1.542l0,4.922c0,0.572 -0.236,1.129 -0.64,1.533c-0.405,0.413 -0.961,0.641 -1.534,0.641l-9.294,0c-0.573,0 -1.129,-0.228 -1.534,-0.641c-0.413,-0.404 -0.64,-0.961 -0.64,-1.533l0,-4.922c0,-0.581 0.227,-1.129 0.64,-1.542c0.405,-0.404 0.961,-0.632 1.534,-0.632Zm9.193,6.994l-9.092,0l0,-4.718l9.092,0l0,4.718Z" style="fill:#585858;fill-opacity:0.921569;"/><path d="M260.056,350.135c-0.001,0.566 -0.46,1.025 -1.025,1.025l-17.284,0c-0.565,0 -1.024,-0.46 -1.025,-1.025c0.001,-0.566 0.46,-1.025 1.025,-1.025l17.284,0c0.565,0.001 1.024,0.46 1.025,1.025Z" style="fill:#ddd;fill-opacity:0.894118;fill-rule:nonzero;"/><path d="M250.389,340.468c0.565,0.001 1.025,0.46 1.025,1.025l0,17.284c0,0.565 -0.459,1.024 -1.025,1.025c-0.565,-0.001 -1.024,-0.46 -1.025,-1.025l0,-17.284c0,-0.565 0.459,-1.024 1.025,-1.025Z" style="fill:#ddd;fill-opacity:0.894118;fill-rule:nonzero;"/><path d="M234.624,327.797l30.47,0c1.68,0 3.3,0.67 4.5,1.85c1.2,1.17 1.88,2.78 1.89,4.46l0,30.64c-0.01,1.68 -0.69,3.28 -1.89,4.46c-1.2,1.18 -2.82,1.84 -4.5,1.84l-30.47,0c-1.68,0 -3.3,-0.66 -4.5,-1.84c-1.2,-1.18 -1.88,-2.78 -1.89,-4.46l0,-0.01l0,-30.63c0.01,-1.68 0.69,-3.29 1.89,-4.46c1.2,-1.18 2.82,-1.85 4.5,-1.85Zm0,2.7l30.46,0c0.98,0 1.92,0.39 2.62,1.08c0.69,0.66 1.08,1.58 1.08,2.53l0,30.63c0,0.96 -0.39,1.87 -1.08,2.54c-0.7,0.69 -1.64,1.07 -2.62,1.07l-30.46,0c-0.98,0 -1.92,-0.38 -2.61,-1.07c-0.69,-0.67 -1.08,-1.58 -1.08,-2.54l0,-30.63c0,-0.95 0.39,-1.87 1.08,-2.54c0.69,-0.68 1.63,-1.07 2.61,-1.07Z" style="fill:#ddd;fill-opacity:0.894118;"/><path d="M334.59,328.2l30.47,0c1.68,0 3.3,0.67 4.5,1.85c1.2,1.17 1.88,2.78 1.89,4.46l0,30.64c-0.01,1.68 -0.69,3.28 -1.89,4.46c-1.2,1.18 -2.82,1.84 -4.5,1.84l-30.47,0c-1.68,0 -3.3,-0.66 -4.5,-1.84c-1.2,-1.18 -1.88,-2.78 -1.89,-4.46l0,-0.01l0,-30.63c0.01,-1.68 0.69,-3.29 1.89,-4.46c1.2,-1.18 2.82,-1.85 4.5,-1.85Zm0,2.7l30.46,0c0.98,0 1.92,0.39 2.62,1.08c0.69,0.66 1.08,1.58 1.08,2.53l0,30.63c0,0.96 -0.39,1.87 -1.08,2.54c-0.7,0.69 -1.64,1.07 -2.62,1.07l-30.46,0c-0.98,0 -1.92,-0.38 -2.61,-1.07c-0.69,-0.67 -1.08,-1.58 -1.08,-2.54l0,-30.63c0,-0.95 0.39,-1.87 1.08,-2.54c0.69,-0.68 1.63,-1.07 2.61,-1.07Z" style="fill:#585858;fill-opacity:0.894118;"/><g><path d="M165.363,471.366l-30.47,0c-1.68,0 -3.3,-0.67 -4.5,-1.85c-1.2,-1.17 -1.88,-2.78 -1.89,-4.46l0,-30.64c0.01,-1.68 0.69,-3.28 1.89,-4.46c1.2,-1.18 2.82,-1.84 4.5,-1.84l30.47,0c1.68,0 3.3,0.66 4.5,1.84c1.2,1.18 1.88,2.78 1.89,4.46l0,0.01l0,30.63c-0.01,1.68 -0.69,3.29 -1.89,4.46c-1.2,1.18 -2.82,1.85 -4.5,1.85Zm0,-2.7l-30.46,0c-0.98,0 -1.92,-0.39 -2.62,-1.08c-0.69,-0.66 -1.08,-1.58 -1.08,-2.53l0,-30.63c0,-0.96 0.39,-1.87 1.08,-2.54c0.7,-0.69 1.64,-1.07 2.62,-1.07l30.46,0c0.98,0 1.92,0.38 2.61,1.07c0.69,0.67 1.08,1.58 1.08,2.54l0,30.63c0,0.95 -0.39,1.87 -1.08,2.54c-0.69,0.68 -1.63,1.07 -2.61,1.07Z" style="fill:#ddd;fill-opacity:0.894118;"/><path d="M150.644,437.525c0.513,0.515 0.513,1.349 0,1.863l-6.631,6.613c-0.513,0.513 -1.348,0.513 -1.862,0c-0.514,-0.515 -0.514,-1.349 0,-1.862l6.631,-6.614c0.514,-0.512 1.348,-0.512 1.862,0Z" style="fill:#ddd;fill-rule:nonzero;"/><path d="M157.105,446.178c-0.525,0.504 -1.359,0.488 -1.862,-0.035l-6.486,-6.756c-0.503,-0.523 -0.487,-1.358 0.036,-1.862c0.525,-0.503 1.358,-0.488 1.862,0.036l6.485,6.756c0.503,0.523 0.487,1.357 -0.035,1.861Z" style="fill:#ddd;fill-rule:nonzero;"/><path d="M149.756,437.149c0.727,0.001 1.316,0.591 1.316,1.317l0.001,21.852c-0.001,0.726 -0.591,1.316 -1.317,1.317c-0.727,-0.001 -1.317,-0.591 -1.317,-1.317l0,-21.852c0.001,-0.726 0.59,-1.316 1.317,-1.317Z" style="fill:#ddd;fill-rule:nonzero;"/></g><path d="M238.209,350.476c0,0 -0.394,-0.398 0.019,-0.825c0.322,-0.333 3.155,-3.153 3.155,-3.153c0,0 0.667,-0.652 0.666,0.017l-0.007,7.097c0,0 0.004,0.689 -0.692,-0.005l-3.094,-3.084l-0.047,-0.047Z" style="fill:#ddd;fill-opacity:0.894118;"/><path d="M249.844,338.019c0,0 0.398,-0.393 0.825,0.019c0.333,0.322 3.152,3.155 3.152,3.155c0,0 0.653,0.667 -0.016,0.666l-7.097,-0.007c0,0 -0.689,0.004 0.005,-0.692l3.083,-3.093l0.048,-0.048Z" style="fill:#ddd;fill-opacity:0.894118;"/><path d="M262.425,350.476c0,0 0.394,-0.398 -0.019,-0.825c-0.322,-0.333 -3.155,-3.153 -3.155,-3.153c0,0 -0.667,-0.652 -0.666,0.017l0.007,7.097c0,0 -0.004,0.689 0.693,-0.005l3.093,-3.084l0.047,-0.047Z" style="fill:#ddd;fill-opacity:0.894118;"/><path d="M249.968,362.235c0,0 0.399,0.394 0.826,-0.019c0.333,-0.321 3.152,-3.154 3.152,-3.154c0,0 0.652,-0.668 -0.017,-0.667l-7.096,0.007c0,0 -0.689,-0.004 0.005,0.693l3.083,3.093l0.047,0.047Z" style="fill:#ddd;fill-opacity:0.894118;"/><path d="M39.265,338.952c-0.644,0 -1.306,-0.135 -2.171,0.054c-0.433,0.094 -0.98,0.345 -1.342,0.825c-0.362,0.479 -0.474,1.054 -0.474,1.6l3,26.745c0,2.187 1.799,3.995 3.987,3.995l15.585,0c2.188,0 3.986,-1.808 3.986,-3.995l3,-26.745c0,-0.546 -0.113,-1.121 -0.475,-1.6c-0.361,-0.48 -0.909,-0.731 -1.342,-0.825c-0.866,-0.189 -1.525,-0.054 -2.169,-0.054l-21.585,0Zm-1.354,2.629c0.228,-0.006 0.652,0.005 1.354,0.005l21.585,0c0.702,0 1.123,-0.011 1.352,-0.005l-3,26.595c0,0.779 -0.582,1.362 -1.352,1.362l-15.585,0c-0.77,0 -1.354,-0.583 -1.354,-1.362l-3,-26.595Z" style="fill:#ddd;fill-opacity:0.909804;fill-rule:nonzero;"/><path d="M45.386,351.067l1.729,14.061c0.068,0.557 -0.325,1.061 -0.882,1.129c-0.557,0.069 -1.061,-0.325 -1.129,-0.882l-1.729,-14.061c-0.068,-0.557 0.325,-1.061 0.882,-1.129c0.557,-0.069 1.061,0.324 1.129,0.882Z" style="fill:#ddd;fill-opacity:0.956863;fill-rule:nonzero;"/><path d="M62.621,328.058l-24.568,0.068c-2.244,0.006 -4.353,1.499 -4.361,3.724l0,0.025l0.086,0.804l0.215,0.517c0.62,1.512 2.231,2.536 4.048,2.531l24.57,-0.066c2.313,-0.006 4.352,-1.635 4.361,-3.859l0,-0.022l0.001,-0.004c0.008,-2.225 -2.11,-3.724 -4.352,-3.718Zm0.007,2.633c1.125,-0.002 1.713,0.636 1.711,1.075l-0.001,0.022l0,0.004c-0.001,0.439 -0.68,1.232 -1.734,1.235l-24.57,0.067c-1.053,0.003 -1.71,-0.769 -1.709,-1.208l0,-0.023l0,-0.003c0.002,-0.439 0.611,-1.097 1.735,-1.101l24.568,-0.068Z" style="fill:#ddd;fill-opacity:0.909804;fill-rule:nonzero;"/><path d="M349.309,362.041c-0.513,-0.515 -0.513,-1.349 0,-1.863l6.631,-6.613c0.513,-0.513 1.348,-0.513 1.862,0c0.514,0.515 0.514,1.349 0,1.862l-6.631,6.614c-0.514,0.512 -1.348,0.512 -1.862,0Z" style="fill:#585858;fill-rule:nonzero;"/><path d="M342.848,353.388c0.525,-0.504 1.359,-0.488 1.862,0.035l6.486,6.756c0.503,0.523 0.487,1.358 -0.036,1.862c-0.525,0.503 -1.358,0.488 -1.862,-0.036l-6.485,-6.756c-0.503,-0.523 -0.487,-1.357 0.035,-1.861Z" style="fill:#585858;fill-rule:nonzero;"/><path d="M350.197,362.417c-0.727,-0.001 -1.316,-0.591 -1.316,-1.317l-0.001,-21.852c0.001,-0.726 0.591,-1.316 1.317,-1.317c0.727,0.001 1.317,0.591 1.317,1.317l0,21.852c-0.001,0.726 -0.59,1.316 -1.317,1.317Z" style="fill:#585858;fill-rule:nonzero;"/></svg>