<svg height="27" viewBox="0 0 27 27" width="27" xmlns="http://www.w3.org/2000/svg" xmlns:xlink="http://www.w3.org/1999/xlink"><clipPath id="a"><path d="m0 0h27v27h-27z"/></clipPath><clipPath id="b"><path d="m0 0h27v27h-27z"/></clipPath><clipPath id="c"><path d="m0 0h27v27h-27z"/></clipPath><g clip-path="url(#a)"><g clip-path="url(#b)"><g clip-path="url(#c)" fill="#585858" fill-rule="evenodd"><path d="m13.178 8.876s.312-.308.646.015c.261.252 2.467 2.469 2.467 2.469s.511.522-.013.521l-5.554-.005s-.539.003.004-.542l2.413-2.421z"/><path d="m13.178 18.124s.312.308.646-.015c.261-.252 2.467-2.469 2.467-2.469s.511-.522-.013-.521l-5.554.005s-.539-.002.004.542l2.413 2.421z"/></g></g></g></svg>