<?xml version="1.0" encoding="utf-8"?>
<!-- Generator: Adobe Illustrator 23.0.6, SVG Export Plug-In . SVG Version: 6.00 Build 0)  -->
<svg version="1.1" id="Ebene_1" xmlns:serif="http://www.serif.com/"
	 xmlns="http://www.w3.org/2000/svg" xmlns:xlink="http://www.w3.org/1999/xlink" x="0px" y="0px" viewBox="0 0 1280 1280"
	 style="enable-background:new 0 0 1280 1280;" xml:space="preserve">
<style type="text/css">
	.st0{fill:#383838;}
	.st1{fill-rule:evenodd;clip-rule:evenodd;fill:#383838;}
	.st2{fill:#51C083;}
	.st3{fill-rule:evenodd;clip-rule:evenodd;fill:#51C083;}
	.st4{fill:#E5E5E5;}
	.st5{fill:#383838;fill-opacity:0.9569;}
	.st6{fill-rule:evenodd;clip-rule:evenodd;fill:#FFFFFF;}
	.st7{fill:none;stroke:#383838;stroke-width:6;stroke-miterlimit:10;}
	.st8{fill-rule:evenodd;clip-rule:evenodd;fill:none;stroke:#383838;stroke-width:6;stroke-linejoin:round;stroke-miterlimit:10;}
</style>
<path class="st0" d="M357.6,341.2l-6.4,6.4l33.9,33.9l-34,34l6.4,6.4l34-34l0,0l6.4-6.4L357.6,341.2L357.6,341.2L357.6,341.2z"/>
<path class="st0" d="M135.5,341.2l6.4,6.4l-33.9,34l34,34l-6.4,6.4l-34-34l0,0l-6.4-6.4L135.5,341.2L135.5,341.2z"/>
<path class="st0" d="M672.4,398.5L666,405l-33.9-34l-34,34l-6.4-6.4l34-34l0,0l6.4-6.4L672.4,398.5L672.4,398.5z"/>
<path class="st0" d="M339,118.7c5.2,0,9.5,4.3,9.5,9.5s-4.3,9.5-9.5,9.5s-9.5-4.3-9.5-9.5S333.8,118.7,339,118.7z"/>
<path class="st0" d="M375.2,118.7c5.2,0,9.5,4.3,9.5,9.5s-4.3,9.5-9.5,9.5s-9.5-4.3-9.5-9.5S369.9,118.7,375.2,118.7z"/>
<path class="st0" d="M411.3,118.7c5.2,0,9.5,4.3,9.5,9.5s-4.3,9.5-9.5,9.5s-9.5-4.3-9.5-9.5S406.1,118.7,411.3,118.7z"/>
<path class="st0" d="M929.2,368.1l-6.6-6.5l-34.8,34.5L853,361.5l-6.6,6.5l34.9,34.5l0,0l6.6,6.5L929.2,368.1L929.2,368.1
	L929.2,368.1z"/>
<path class="st0" d="M1171.4,354.5c1.7,1.7,1.7,4.3,0,6l-50.7,50.7c-1.7,1.7-4.3,1.7-6,0s-1.7-4.3,0-6l50.7-50.7
	C1167.1,352.9,1169.7,352.9,1171.4,354.5z"/>
<path class="st0" d="M1114.7,354.5c1.7-1.7,4.3-1.7,6,0l50.7,50.7c1.7,1.7,1.7,4.3,0,6s-4.3,1.7-6,0l-50.7-50.7
	C1113.1,358.9,1113.1,356.2,1114.7,354.5z"/>
<path class="st1" d="M1074,154.8c3.2-2.7,6.6-5.1,10.2-7.3c6.7-4,13.7-7.3,21.1-9.9c8-2.8,16.2-4.8,24.5-6.2
	c8.8-1.5,17.8-2.2,26.8-2.2c2.4,0,4.7,0.1,7.1,0.2c0.9,0.1,1.7,0.4,2.3,1.1s0.9,1.5,0.9,2.4v21.7l36-35.9l-36-35.9v18.9
	c0,0.9-0.4,1.8-1,2.4s-1.5,1-2.4,1c-12.1,0.3-24.1,2.1-35.8,5.3c-5.3,1.5-10.4,3.3-15.4,5.4c-4.6,1.9-9.1,4.2-13.3,6.9
	c-3.8,2.4-7.5,5.1-10.8,8.2c-3,2.7-5.7,5.8-8,9.1c-2.1,3-3.8,6.3-5,9.8C1074.7,151.5,1074.3,153.1,1074,154.8z M1160,66.1v32.3
	c-11.5,0.5-23,2.4-34.1,5.4c-5.6,1.5-11,3.5-16.3,5.7c-4.9,2.1-9.7,4.6-14.2,7.4c-4.2,2.6-8.2,5.6-11.8,8.9c-3.4,3.1-6.4,6.5-9,10.3
	c-2.5,3.6-4.4,7.4-5.8,11.5c-1.4,4-2,8.2-2.1,12.5c0.1,3.6,0.6,7.1,1.7,10.6c5.4-6.9,12-12.8,19.5-17.3c6.3-3.8,12.9-6.9,19.8-9.2
	c7.6-2.7,15.4-4.6,23.3-5.9c8.5-1.4,17-2.1,25.6-2.1c1.2,0,2.3,0.1,3.5,0.1v35l52.6-52.6L1160,66.1z"/>
<path class="st0" d="M1171.4,354.5c1.7,1.7,1.7,4.3,0,6l-50.7,50.7c-1.7,1.7-4.3,1.7-6,0s-1.7-4.3,0-6l50.7-50.7
	C1167.1,352.9,1169.7,352.9,1171.4,354.5z"/>
<g>
	<path class="st0" d="M146.2,870.3c1.4,1.4,1.4,3.7,0,5.1L103.6,918c-1.4,1.4-3.7,1.4-5.1,0s-1.4-3.7,0-5.1l42.6-42.6
		C142.6,868.9,144.8,868.9,146.2,870.3z"/>
	<path class="st0" d="M98.5,870.3c1.4-1.4,3.7-1.4,5.1,0l42.6,42.6c1.4,1.4,1.4,3.7,0,5.1c-1.4,1.4-3.7,1.4-5.1,0l-42.6-42.6
		C97.1,873.9,97.1,871.6,98.5,870.3z"/>
</g>
<g>
	<path class="st2" d="M669.7,638.7c0,2-1.6,3.6-3.6,3.6h-60.3c-2,0-3.6-1.6-3.6-3.6s1.6-3.6,3.6-3.6h60.3
		C668.1,635.1,669.7,636.7,669.7,638.7z"/>
	<path class="st2" d="M636,604.9c2,0,3.6,1.6,3.6,3.6v60.3c0,2-1.6,3.6-3.6,3.6s-3.6-1.6-3.6-3.6v-60.3
		C632.4,606.5,634,604.9,636,604.9L636,604.9z"/>
</g>
<g>
	<path class="st0" d="M1161.6,1145.8c0,1.2-0.9,2.1-2.1,2.1H1124c-1.2,0-2.1-0.9-2.1-2.1s0.9-2.1,2.1-2.1h35.5
		C1160.7,1143.7,1161.6,1144.7,1161.6,1145.8z"/>
	<path class="st0" d="M1141.8,1126c1.2,0,2.1,0.9,2.1,2.1v35.5c0,1.2-0.9,2.1-2.1,2.1s-2.1-0.9-2.1-2.1v-35.5
		C1139.7,1126.9,1140.6,1126,1141.8,1126L1141.8,1126z"/>
</g>
<path class="st0" d="M1114.7,354.5c1.7-1.7,4.3-1.7,6,0l50.7,50.7c1.7,1.7,1.7,4.3,0,6s-4.3,1.7-6,0l-50.7-50.7
	C1113.1,358.9,1113.1,356.2,1114.7,354.5z"/>
<path class="st0" d="M72.8,108.4l93.5-0.1c2.6,0,4.6,2.1,4.6,4.6c0,2.6-2.1,4.6-4.6,4.6H72.6c-2.6,0-4.5-1.9-4.5-4.5l-0.1-0.1
	C68,110.3,70.2,108.4,72.8,108.4z"/>
<path class="st0" d="M72.6,138.2h93.7c2.6,0,4.6,2.1,4.6,4.6c0,2.6-2.1,4.6-4.6,4.6H72.6c-2.6,0-4.6-2.1-4.6-4.6
	S70.1,138.2,72.6,138.2z"/>
<path class="st3" d="M52.3,1136.9c0-20,8-39.3,22.2-53.5s33.4-22.1,53.5-22.1s39.3,8,53.5,22.1c14.2,14.2,22.1,33.4,22.1,53.5
	s-8,39.3-22.1,53.5c-14.2,14.2-33.4,22.1-53.5,22.1c-20,0-39.3-8-53.5-22.1C60.3,1176.2,52.3,1157,52.3,1136.9z M62,1136.9
	c0-17.5,7-34.3,19.3-46.6s29.2-19.3,46.6-19.3s34.3,6.9,46.6,19.3c12.4,12.4,19.3,29.2,19.3,46.6c0,17.5-7,34.3-19.3,46.7
	c-12.4,12.4-29.2,19.3-46.6,19.3s-34.3-6.9-46.6-19.3S62,1154.4,62,1136.9z"/>
<path class="st3" d="M309.8,1136.9c0-20,8-39.3,22.2-53.5s33.4-22.1,53.5-22.1s39.3,8,53.5,22.1c14.2,14.2,22.1,33.4,22.1,53.5
	s-8,39.3-22.1,53.5c-14.2,14.2-33.4,22.1-53.5,22.1c-20,0-39.3-8-53.5-22.1C317.8,1176.2,309.8,1157,309.8,1136.9z M319.5,1136.9
	c0-17.5,7-34.3,19.3-46.6s29.2-19.3,46.6-19.3s34.3,6.9,46.6,19.3c12.4,12.4,19.3,29.2,19.3,46.6c0,17.5-7,34.3-19.3,46.7
	c-12.4,12.4-29.2,19.3-46.6,19.3s-34.3-6.9-46.6-19.3C326.5,1171.2,319.5,1154.4,319.5,1136.9z"/>
<path class="st2" d="M145,1107.5c1.1-1.9,2.9-3.3,5-3.9s4.4-0.3,6.2,0.8c1.9,1.1,3.3,2.8,3.9,5c0.6,2.1,0.3,4.3-0.8,6.2l-35.4,62.7
	L96,1151c-1.5-1.5-2.4-3.6-2.5-5.8c0-2.2,0.8-4.3,2.3-5.9c1.5-1.5,3.6-2.4,5.8-2.5c2.2,0,4.3,0.8,5.9,2.3l12.6,12.3L145,1107.5
	L145,1107.5z"/>
<path class="st4" d="M402.5,1107.5c1.1-1.9,2.9-3.3,5-3.9s4.4-0.3,6.2,0.8c1.9,1.1,3.3,2.8,3.9,5c0.6,2.1,0.3,4.3-0.8,6.2
	l-35.4,62.7l-27.9-27.3c-1.5-1.5-2.4-3.6-2.5-5.8c0-2.2,0.8-4.3,2.3-5.9c1.5-1.5,3.6-2.4,5.8-2.5c2.2,0,4.3,0.8,5.9,2.3l12.6,12.3
	l12.4-22.1L402.5,1107.5L402.5,1107.5z"/>
<g>
	<path class="st5" d="M-274.1,831c-7.2,0-13.1,5.9-13.1,13.1v77c0,7.2,5.9,13.1,13.1,13.1h77.4c7.2,0,13.1-5.9,13.1-13.1v-47.9
		l-7.1,11.7v36.2c0,3.4-2.6,6-5.9,6H-274c-3.3,0-5.9-2.6-5.9-6v-77c0-3.4,2.6-6,5.9-6h58.8l4.3-7.1H-274.1L-274.1,831z"/>
	<path class="st1" d="M-229.3,905.7c0.1,0,0.3-0.1,0.5-0.2c1.2-0.5,11.3-5.3,11.3-5.3l0.1-0.1c0.3-0.1,0.7-0.4,1.1-0.8
		c0.1-0.1,0.1-0.1,0.2-0.2c0.1-0.1,0.2-0.2,0.2-0.3l44.4-72.9c0.6-1,0.7-2,0.1-2.3l-12.9-6.9c-0.6-0.3-1.5,0.3-2.1,1.3l-44.4,72.9
		c-0.1,0.1-0.1,0.2-0.1,0.3c-0.2,0.2-0.3,0.5-0.3,1.1c0,0.1,0,0.2,0,0.3c0,0.2,0,0.3,0,0.5l0.9,11.6v0.2
		C-230.4,904.7-230.3,905.9-229.3,905.7L-229.3,905.7L-229.3,905.7z"/>
</g>
<path class="st1" d="M593.1,854.1c0-4.3,1.8-8.4,4.8-11.4c3.1-3,7.2-4.7,11.5-4.7h49.7c4.3,0,8.5,1.7,11.5,4.7
	c3.1,3,4.8,7.1,4.8,11.4v11.7h-6.9v-11.7c0-2.4-1-4.8-2.8-6.5c-1.8-1.8-4.2-2.8-6.7-2.8h-49.7c-2.5,0-4.9,1-6.7,2.7
	s-2.8,4.1-2.8,6.5v78.4c0,2.5,1,4.8,2.8,6.5c1.8,1.8,4.2,2.7,6.7,2.7H659c2.5,0,4.9-1,6.7-2.7s2.8-4,2.8-6.5v-8.8h6.9v8.8
	c0,4.3-1.8,8.4-4.8,11.4c-3.1,3-7.2,4.7-11.5,4.7h-49.7c-4.3,0-8.4-1.7-11.5-4.7s-4.8-7.1-4.8-11.4L593.1,854.1L593.1,854.1z"/>
<path class="st0" d="M709.6,896.9c-1.3,1.3-3.5,1.3-4.8,0l-16.9-17c-1.3-1.3-1.3-3.5,0-4.8s3.5-1.3,4.8,0l16.9,17
	C710.9,893.4,710.9,895.6,709.6,896.9z"/>
<path class="st0" d="M687.4,913.4c-1.3-1.3-1.2-3.5,0.1-4.8l17.3-16.6c1.3-1.3,3.5-1.2,4.8,0.1s1.2,3.5-0.1,4.8l-17.3,16.6
	C690.8,914.8,688.7,914.8,687.4,913.4L687.4,913.4z"/>
<path class="st0" d="M710.5,894.6c0,1.9-1.5,3.4-3.4,3.4h-61c-1.9,0-3.4-1.5-3.4-3.4s1.5-3.4,3.4-3.4h61
	C709,891.3,710.5,892.8,710.5,894.6L710.5,894.6z"/>
<path class="st1" d="M596.2,1112.1c0-9.5,3.8-18.6,10.5-25.3c6.7-6.7,15.8-10.5,25.3-10.5s18.6,3.8,25.3,10.5s10.5,15.8,10.5,25.3
	s-3.8,18.6-10.5,25.3c-6.7,6.7-15.8,10.5-25.3,10.5s-18.6-3.8-25.3-10.5C599.9,1130.7,596.2,1121.5,596.2,1112.1z M603.1,1112.1
	c0-7.7,3-15,8.5-20.4c5.4-5.4,12.8-8.5,20.4-8.5c7.7,0,15,3,20.5,8.5c5.4,5.4,8.5,12.8,8.5,20.4c0,7.7-3,15-8.5,20.5
	c-5.4,5.4-12.8,8.5-20.5,8.5s-15-3.1-20.4-8.5C606.1,1127.1,603.1,1119.7,603.1,1112.1z"/>
<g>
	<path class="st1" d="M1117.7,894.8c0-7,2.8-13.6,7.7-18.6c4.9-4.9,11.6-7.7,18.5-7.7c7,0,13.6,2.8,18.6,7.7
		c4.9,4.9,7.7,11.6,7.7,18.6c0,6.9-2.8,13.6-7.7,18.5c-4.9,4.9-11.6,7.7-18.6,7.7s-13.6-2.8-18.5-7.7
		C1120.5,908.4,1117.7,901.7,1117.7,894.8z M1124.6,894.8c0-5.1,2-10,5.7-13.7c3.6-3.6,8.6-5.7,13.7-5.7s10,2,13.7,5.7
		c3.6,3.6,5.7,8.6,5.7,13.7s-2,10-5.7,13.6c-3.6,3.6-8.6,5.7-13.7,5.7s-10-2-13.7-5.7C1126.7,904.8,1124.6,899.9,1124.6,894.8z"/>
	<path class="st1" d="M1187,935.5l-0.4,0.1c-11.4,1.2-21.8,7.1-28.6,16.2l-0.4,0.5c-1.7,2.4-3.9,4.3-6.5,5.7c-2.4,1.3-5,2-7.8,2
		s-5.5-0.7-7.9-2.1c-2.6-1.5-4.8-3.5-6.5-6l-0.4-0.5c-1.6-2.1-3.4-4-5.4-5.7c-2.3-1.9-4.7-3.7-7.3-5.2c-2.6-1.5-5.2-2.8-8-3.9
		c-2.5-1-5-1.6-7.6-2l-0.4-0.1c-2.3-0.3-4.4-0.9-6.5-1.9c-1.9-0.9-3.7-2.2-5.1-3.7c-2.9-3.1-4.5-7.1-4.4-11.3c0-2.8,0.6-5.7,1.8-8.2
		l0.3-0.7c1.1-2.5,1.8-5.1,2.3-7.8c0.5-3.1,0.8-6.2,0.8-9.3c0-2.9-0.2-5.8-0.7-8.7c-0.4-2.5-1.1-5-2-7.3l-0.3-0.7
		c-1-2.5-1.6-5.2-1.6-7.9c-0.1-4.2,1.6-8.4,4.5-11.5c1.5-1.5,3.3-2.8,5.2-3.7c2.1-0.9,4.3-1.6,6.6-1.8l0.4-0.1
		c2.6-0.3,5.2-0.9,7.7-1.8c2.8-1,5.5-2.3,8.1-3.7c2.6-1.5,5.1-3.1,7.4-5c2-1.7,3.9-3.5,5.5-5.6l0.4-0.5c1.7-2.4,3.9-4.3,6.5-5.7
		c2.4-1.3,5-2,7.8-2s5.5,0.7,7.9,2.1c2.6,1.5,4.8,3.5,6.5,6l0.4,0.5c6.7,9.3,16.9,15.4,28.3,16.9l0.4,0.1c2.2,0.3,4.4,0.9,6.5,1.9
		c1.9,0.9,3.7,2.2,5.1,3.7c2.9,3.1,4.4,7.1,4.4,11.3c0,2.8-0.7,5.7-1.8,8.2l-0.3,0.7c-1.1,2.5-1.8,5.1-2.3,7.8
		c-0.5,3.1-0.8,6.2-0.8,9.3c0,2.9,0.2,5.8,0.7,8.7c0.4,2.5,1.1,5,2,7.3l0.3,0.7c1.1,2.5,1.6,5.2,1.7,7.9c0.1,4.3-1.6,8.4-4.5,11.5
		c-1.5,1.5-3.3,2.8-5.2,3.7C1191.5,934.6,1189.3,935.3,1187,935.5L1187,935.5z M1101.4,857h0.4l0,0c3.1-0.4,6.2-1.1,9.2-2.2
		c3.2-1.1,6.2-2.5,9.2-4.2c2.9-1.6,5.7-3.6,8.3-5.7c2.5-2,4.7-4.2,6.6-6.8c0,0,0,0,0-0.1l0.4-0.5c0,0,0,0,0-0.1
		c1.1-1.6,2.6-2.8,4.3-3.8c1.4-0.7,2.9-1.2,4.4-1.2c1.6,0,3.1,0.4,4.5,1.2c1.7,1,3.1,2.3,4.3,3.9c0,0,0,0,0,0.1l0.4,0.6
		c7.8,10.9,19.8,18,33,19.7l0.4,0.1l0,0c1.5,0.2,3,0.6,4.4,1.3c1.1,0.5,2.2,1.3,3,2.2c1.6,1.8,2.5,4.1,2.5,6.5
		c0,1.9-0.4,3.8-1.2,5.5v0.1l-0.3,0.7l0,0c-1.3,3-2.2,6.2-2.7,9.4c-0.6,3.4-0.9,6.9-0.9,10.4c0,3.3,0.3,6.5,0.8,9.8
		c0.5,3,1.3,6,2.4,8.8l0,0l0.3,0.7l0,0c0.7,1.7,1.1,3.5,1.1,5.3c0,2.5-0.9,4.8-2.6,6.6c-0.9,0.9-1.9,1.7-3.1,2.2
		c-1.4,0.6-2.9,1-4.5,1.2l0,0l-0.4,0.1c-13.3,1.4-25.4,8.3-33.5,18.9l-0.4,0.5l0,0c-1.2,1.6-2.6,2.8-4.3,3.8
		c-1.4,0.7-2.9,1.2-4.4,1.2c-1.6,0-3.1-0.4-4.5-1.2c-1.7-1-3.2-2.3-4.3-3.9c0,0,0,0,0-0.1l-0.4-0.6l0,0c-1.9-2.6-4.1-4.9-6.5-6.9
		c-2.6-2.2-5.3-4.1-8.2-5.9c-2.9-1.7-5.9-3.2-9.1-4.4c-3-1.2-6-2-9.2-2.4l0,0l-0.4-0.1l0,0c-1.5-0.2-3-0.6-4.4-1.3
		c-1.1-0.5-2.2-1.3-3-2.2c-1.6-1.7-2.5-4.1-2.5-6.5c0-1.9,0.4-3.8,1.2-5.5c0,0,0,0,0-0.1l0.3-0.7c0,0,0,0,0-0.1
		c1.3-3,2.2-6.2,2.7-9.4c0.6-3.4,0.9-6.9,0.9-10.4c0-3.3-0.3-6.5-0.8-9.8c-0.5-3-1.3-6-2.4-8.8l0,0l-0.3-0.7l0,0
		c-0.7-1.7-1.1-3.5-1.1-5.3c0-2.4,0.9-4.8,2.6-6.6c0.9-0.9,1.9-1.7,3.1-2.2C1098.3,857.6,1099.8,857.2,1101.4,857L1101.4,857
		L1101.4,857z"/>
</g>
<path class="st0" d="M1170.5,659.1c-1.3,1.3-1.3,3.5,0,4.8l24.2,24c1.3,1.3,3.5,1.3,4.8,0s1.3-3.5,0-4.8l-24.2-24
	C1174,657.8,1171.8,657.8,1170.5,659.1z"/>
<path class="st1" d="M1187.5,631c0-12.1-4.8-23.8-13.4-32.3c-8.6-8.6-20.2-13.4-32.3-13.4c-12.1,0-23.8,4.8-32.3,13.4
	c-8.6,8.6-13.4,20.2-13.4,32.3s4.8,23.8,13.4,32.3c8.6,8.6,20.2,13.4,32.3,13.4c12.1,0,23.8-4.8,32.3-13.4
	C1182.7,654.7,1187.5,643.1,1187.5,631L1187.5,631z M1181,631c0-10.4-4.1-20.4-11.5-27.7c-7.3-7.3-17.3-11.5-27.7-11.5
	c-10.4,0-20.4,4.1-27.7,11.5c-7.3,7.3-11.5,17.3-11.5,27.7s4.1,20.4,11.5,27.7c7.3,7.4,17.3,11.5,27.7,11.5
	c10.4,0,20.4-4.1,27.7-11.5C1176.8,651.3,1181,641.3,1181,631z"/>
<path class="st0" d="M1170.5,1174c-1.3,1.3-1.3,3.5,0,4.8l24.2,24c1.3,1.3,3.5,1.3,4.8,0s1.3-3.5,0-4.8l-24.2-24
	C1174,1172.7,1171.8,1172.7,1170.5,1174z"/>
<path class="st1" d="M1187.5,1145.8c0-12.1-4.8-23.8-13.4-32.3c-8.6-8.6-20.2-13.4-32.3-13.4c-12.1,0-23.8,4.8-32.3,13.4
	c-8.6,8.6-13.4,20.2-13.4,32.3c0,12.1,4.8,23.8,13.4,32.3c8.6,8.6,20.2,13.4,32.3,13.4c12.1,0,23.8-4.8,32.3-13.4
	C1182.7,1169.6,1187.5,1158,1187.5,1145.8L1187.5,1145.8z M1181,1145.8c0-10.4-4.1-20.4-11.5-27.7c-7.3-7.3-17.3-11.5-27.7-11.5
	c-10.4,0-20.4,4.1-27.7,11.5c-7.3,7.3-11.5,17.3-11.5,27.7c0,10.4,4.1,20.4,11.5,27.7c7.3,7.4,17.3,11.5,27.7,11.5
	c10.4,0,20.4-4.1,27.7-11.5C1176.8,1166.2,1181,1156.2,1181,1145.8z"/>
<path class="st0" d="M623.2,1172.5l-3.5,0.1l-0.1-6.9l3.5-0.1c1.4,0,2.8,0,4.2,0h33.5c10,0,19.6,4,26.7,11.1
	c7.1,7.1,11.1,16.7,11.1,26.7v3.5h-6.9v-3.5c0-8.2-3.3-16-9-21.8c-5.8-5.8-13.6-9-21.8-9h-13.1h-20.5c0,0,0,0-0.1,0
	C625.9,1172.4,624.5,1172.4,623.2,1172.5z"/>
<path class="st0" d="M572.6,1203.4v3.5h-6.9v-3.5c0-10,4-19.6,11.1-26.7s16.7-11.1,26.7-11.1h0.1h0.8h26.2v6.9H627h-22.8h-0.8
	c-8.2,0-16,3.3-21.8,9.1C575.8,1187.4,572.6,1195.3,572.6,1203.4L572.6,1203.4z"/>
<path class="st0" d="M909.8,861.4L909.8,861.4L909.8,861.4L909.8,861.4c0-4.9-2-9.6-5.4-13.1c-3.5-3.5-8.2-5.4-13.1-5.4
	c-4.9,0-9.6,2-13.1,5.4c-3.5,3.5-5.4,8.2-5.4,13.1l0,0v-0.1l0,0c0.1,4.5,0.1,8.9,0.3,13.4l-8.1,0.2c-0.1-4.5-0.2-9-0.3-13.5v-0.1
	c0-7.1,2.8-13.9,7.8-18.9s11.8-7.8,18.9-7.8c7.1,0,13.9,2.8,18.9,7.8s7.8,11.8,7.8,18.9v0.1c-0.1,4.5-0.1,9-0.3,13.5l-8.1-0.2
	C909.7,870.3,909.8,865.9,909.8,861.4L909.8,861.4z"/>
<path class="st1" d="M851.8,929.3v-42.1c0-3.4,1.3-6.7,3.8-9.1c2.4-2.4,5.7-3.8,9.1-3.8H918c3.4,0,6.7,1.4,9.1,3.8
	c2.4,2.4,3.8,5.7,3.8,9.1v42.1c0,3.4-1.3,6.7-3.8,9.1c-2.4,2.4-5.7,3.8-9.1,3.8h-53.3c-3.4,0-6.7-1.4-9.1-3.8
	C853.1,936,851.8,932.7,851.8,929.3z M858.3,929.3v-42.1c0-1.7,0.7-3.3,1.9-4.5s2.8-1.9,4.5-1.9H918c1.7,0,3.3,0.7,4.5,1.9
	s1.9,2.8,1.9,4.5v42.1c0,1.7-0.7,3.3-1.9,4.5s-2.8,1.9-4.5,1.9h-53.3c-1.7,0-3.3-0.7-4.5-1.9S858.3,931,858.3,929.3L858.3,929.3z"/>
<path class="st0" d="M862,607.3c-1.6,0-3.3-0.3-5.6,0.1c-1.1,0.2-2.5,0.9-3.4,2.1c-0.9,1.2-1.2,2.7-1.2,4.1l7.7,68.5
	c0,5.6,4.6,10.2,10.2,10.2h39.9c5.6,0,10.2-4.6,10.2-10.2l7.7-68.5c0-1.4-0.3-2.9-1.2-4.1c-0.9-1.2-2.3-1.9-3.4-2.1
	c-2.2-0.5-3.9-0.1-5.6-0.1H862L862,607.3z M858.5,614c0.6,0,1.7,0,3.5,0h55.3c1.8,0,2.9,0,3.5,0l-7.7,68.1c0,2-1.5,3.5-3.5,3.5
	h-39.9c-2,0-3.5-1.5-3.5-3.5L858.5,614L858.5,614z"/>
<path class="st0" d="M877.6,638.3l4.4,36c0.2,1.4-0.8,2.7-2.3,2.9c-1.4,0.2-2.7-0.8-2.9-2.3l-4.4-36c-0.2-1.4,0.8-2.7,2.3-2.9
	C876.2,635.9,877.5,636.9,877.6,638.3z"/>
<path class="st0" d="M921.8,579.4l-62.9,0.2c-5.7,0-11.1,3.8-11.2,9.5v0.1l0.2,2.1l0.6,1.3c1.6,3.9,5.7,6.5,10.4,6.5l62.9-0.2
	c5.9,0,11.1-4.2,11.2-9.9l0,0l0,0C932.9,583.2,927.5,579.4,921.8,579.4L921.8,579.4z M921.8,586.2c2.9,0,4.4,1.6,4.4,2.8v0.1l0,0
	c0,1.1-1.7,3.2-4.4,3.2l-62.9,0.2c-2.7,0-4.4-2-4.4-3.1v-0.1l0,0c0-1.1,1.6-2.8,4.4-2.8L921.8,586.2L921.8,586.2z"/>
<g>
	<path class="st1" d="M161.4,692.9h-78c-4.3,0-8.4-1.7-11.5-4.7s-4.8-7.1-4.8-11.4v-78.4c0-4.3,1.8-8.4,4.8-11.4
		c3.1-3,7.2-4.7,11.5-4.7h78c4.3,0,8.4,1.7,11.5,4.7s4.8,7.1,4.8,11.4v78.4c0,4.3-1.8,8.4-4.8,11.4
		C169.8,691.2,165.7,692.9,161.4,692.9z M161.4,686h-78c-2.5,0-4.9-1-6.7-2.8c-1.8-1.7-2.8-4-2.8-6.5v-78.4c0-2.5,1-4.8,2.8-6.5
		c1.8-1.8,4.2-2.7,6.7-2.7h78c2.5,0,4.9,1,6.7,2.7s2.8,4,2.8,6.5v78.4c0,2.4-1,4.8-2.8,6.5C166.3,685,163.9,686,161.4,686L161.4,686
		z"/>
	<path class="st1" d="M417.7,692.9h-78c-4.3,0-8.4-1.7-11.5-4.7s-4.8-7.1-4.8-11.4v-78.4c0-4.3,1.8-8.4,4.8-11.4
		c3.1-3,7.2-4.7,11.5-4.7h78c4.3,0,8.4,1.7,11.5,4.7s4.8,7.1,4.8,11.4v78.4c0,4.3-1.8,8.4-4.8,11.4
		C426.1,691.2,422,692.9,417.7,692.9z M417.7,686h-78c-2.5,0-4.9-1-6.7-2.8c-1.8-1.7-2.8-4-2.8-6.5v-78.4c0-2.5,1-4.8,2.8-6.5
		c1.8-1.8,4.2-2.7,6.7-2.7h78c2.5,0,4.9,1,6.7,2.7c1.8,1.7,2.8,4,2.8,6.5v78.4c0,2.4-1,4.8-2.8,6.5C422.6,685,420.2,686,417.7,686
		L417.7,686z"/>
	<path class="st0" d="M123.7,606.3c1.3,1.3,1.3,3.5,0,4.8l-17,16.9c-1.3,1.3-3.5,1.3-4.8,0s-1.3-3.5,0-4.8l17-16.9
		C120.3,604.9,122.4,604.9,123.7,606.3L123.7,606.3z"/>
	<path class="st0" d="M140.2,628.4c-1.3,1.3-3.5,1.2-4.8-0.1L118.9,611c-1.3-1.3-1.2-3.5,0.1-4.8c1.3-1.3,3.5-1.2,4.8,0.1l16.6,17.3
		C141.6,625,141.6,627.1,140.2,628.4L140.2,628.4z"/>
	<path class="st0" d="M121.4,605.3c1.9,0,3.4,1.5,3.4,3.4v55.9c0,1.9-1.5,3.4-3.4,3.4s-3.4-1.5-3.4-3.4v-55.9
		C118.1,606.8,119.6,605.3,121.4,605.3L121.4,605.3z"/>
	<rect x="325.5" y="613.2" class="st1" width="105.8" height="7.2"/>
	<path class="st1" d="M354.7,602.3c1.1,0,1.9-0.9,1.9-1.9v-29.1c0-1.1-0.9-1.9-1.9-1.9h-3.3c-1.1,0-1.9,0.9-1.9,1.9v29.1
		c0,1.1,0.9,1.9,1.9,1.9H354.7z"/>
	<path class="st1" d="M406,602.3c1.1,0,1.9-0.9,1.9-1.9v-29.1c0-1.1-0.9-1.9-1.9-1.9h-3.3c-1.1,0-1.9,0.9-1.9,1.9v29.1
		c0,1.1,0.9,1.9,1.9,1.9H406z"/>
</g>
<path class="st1" d="M65.4,894.3c0-15.1,6-29.6,16.7-40.3s25.2-16.7,40.3-16.7s29.6,6,40.3,16.7s16.7,25.2,16.7,40.3
	s-6,29.6-16.7,40.3s-25.2,16.7-40.3,16.7s-29.6-6-40.3-16.7C71.4,924,65.4,909.4,65.4,894.3z M72.4,894.3c0-13.3,5.3-26,14.6-35.4
	c9.4-9.4,22.1-14.7,35.4-14.7s26,5.3,35.4,14.7c9.4,9.4,14.6,22.1,14.6,35.4c0,13.3-5.3,26-14.6,35.4c-9.4,9.4-22.1,14.7-35.4,14.7
	s-26-5.3-35.4-14.7S72.4,907.6,72.4,894.3z"/>
<path class="st3" d="M595.5,598.5c10.7-10.7,25.2-16.7,40.3-16.7s29.6,6,40.3,16.7s16.7,25.2,16.7,40.3s-6,29.6-16.7,40.3
	s-25.2,16.7-40.3,16.7s-29.6-6-40.3-16.7s-16.7-25.2-16.7-40.3S584.8,609.2,595.5,598.5L595.5,598.5z M600.4,603.5
	c9.4-9.4,22.1-14.6,35.4-14.6c13.3,0,26,5.3,35.4,14.6c9.4,9.4,14.6,22.1,14.6,35.4c0,13.3-5.3,26-14.6,35.4
	c-9.4,9.4-22.1,14.6-35.4,14.6s-26-5.3-35.4-14.6c-9.4-9.4-14.6-22.1-14.6-35.4S591.1,612.8,600.4,603.5L600.4,603.5z"/>
<path class="st1" d="M65.4,894.3c0-15.1,6-29.6,16.7-40.3s25.2-16.7,40.3-16.7s29.6,6,40.3,16.7s16.7,25.2,16.7,40.3
	s-6,29.6-16.7,40.3s-25.2,16.7-40.3,16.7s-29.6-6-40.3-16.7C71.4,924,65.4,909.4,65.4,894.3z M72.4,894.3c0-13.3,5.3-26,14.6-35.4
	c9.4-9.4,22.1-14.7,35.4-14.7s26,5.3,35.4,14.7c9.4,9.4,14.6,22.1,14.6,35.4c0,13.3-5.3,26-14.6,35.4c-9.4,9.4-22.1,14.7-35.4,14.7
	s-26-5.3-35.4-14.7S72.4,907.6,72.4,894.3z"/>
<path class="st3" d="M595.5,598.5c10.7-10.7,25.2-16.7,40.3-16.7s29.6,6,40.3,16.7s16.7,25.2,16.7,40.3s-6,29.6-16.7,40.3
	s-25.2,16.7-40.3,16.7s-29.6-6-40.3-16.7s-16.7-25.2-16.7-40.3S584.8,609.2,595.5,598.5L595.5,598.5z M600.4,603.5
	c9.4-9.4,22.1-14.6,35.4-14.6c13.3,0,26,5.3,35.4,14.6c9.4,9.4,14.6,22.1,14.6,35.4c0,13.3-5.3,26-14.6,35.4
	c-9.4,9.4-22.1,14.6-35.4,14.6s-26-5.3-35.4-14.6c-9.4-9.4-14.6-22.1-14.6-35.4S591.1,612.8,600.4,603.5L600.4,603.5z"/>
<path class="st3" d="M849.3,1108c10.7-10.7,25.2-16.7,40.3-16.7s29.6,6,40.3,16.7s16.7,25.2,16.7,40.3c0,15.1-6,29.6-16.7,40.3
	c-10.7,10.7-25.2,16.7-40.3,16.7s-29.6-6-40.3-16.7s-16.7-25.2-16.7-40.3S838.6,1118.7,849.3,1108L849.3,1108z M854.2,1112.9
	c9.4-9.4,22.1-14.6,35.4-14.6c13.3,0,26,5.3,35.4,14.6c9.4,9.4,14.6,22.1,14.6,35.4s-5.3,26-14.6,35.4c-9.4,9.4-22.1,14.6-35.4,14.6
	c-13.3,0-26-5.3-35.4-14.6c-9.4-9.4-14.6-22.1-14.6-35.4S844.9,1122.3,854.2,1112.9L854.2,1112.9z"/>
<circle class="st3" cx="889.6" cy="1148.3" r="22.3"/>
<polygon class="st3" points="1394.7,-17.8 1498.3,25.9 1394.7,69.7 "/>
<polygon class="st6" points="1381.5,16.2 1450.2,25.9 1381.5,35.7 "/>
<g>
	<g>
		<ellipse class="st7" cx="380" cy="894.3" rx="67.8" ry="46.1"/>
	</g>
</g>
<circle class="st8" cx="380" cy="894.3" r="24.7"/>
</svg>
