<?xml version="1.0" encoding="UTF-8" standalone="no"?><!DOCTYPE svg PUBLIC "-//W3C//DTD SVG 1.1//EN" "http://www.w3.org/Graphics/SVG/1.1/DTD/svg11.dtd"><svg width="100%" height="100%" viewBox="0 0 500 500" version="1.1" xmlns="http://www.w3.org/2000/svg" xmlns:xlink="http://www.w3.org/1999/xlink" xml:space="preserve" xmlns:serif="http://www.serif.com/" style="fill-rule:evenodd;clip-rule:evenodd;stroke-linejoin:round;stroke-miterlimit:1.41421;"><g><circle cx="350.313" cy="50.314" r="34.519" style="fill:#069;"/><circle cx="349.822" cy="251.314" r="34.519" style="fill:none;"/><circle cx="450.944" cy="50.529" r="34.519" style="fill:#bd3381;"/><circle cx="450.646" cy="50.529" r="34.519" style="fill:#f00;"/><circle cx="450.178" cy="250.469" r="34.519" style="fill:none;"/><circle cx="250.161" cy="50.377" r="34.519" style="fill:#bd3381;"/><circle cx="250.161" cy="250.907" r="34.519" style="fill:none;"/><circle cx="150.782" cy="51.377" r="34.519" style="fill:#1ba1ff;"/><circle cx="150.782" cy="252.377" r="34.519" style="fill:none;"/><clipPath id="_clip1"><rect x="132.464" y="36.475" width="39.492" height="32.089"/></clipPath><g clip-path="url(#_clip1)"><path d="M171.956,40.279c-1.452,0.634 -3.007,1.084 -4.663,1.268c1.677,-1.002 2.965,-2.597 3.579,-4.479c-1.575,0.921 -3.313,1.596 -5.154,1.964c-1.473,-1.575 -3.579,-2.557 -5.911,-2.557c-4.478,0 -8.098,3.62 -8.098,8.099c0,0.634 0.061,1.248 0.204,1.841c-6.728,-0.327 -12.7,-3.559 -16.709,-8.447c-0.695,1.187 -1.084,2.577 -1.084,4.07c0,2.802 1.432,5.277 3.6,6.729c-1.33,-0.041 -2.577,-0.389 -3.661,-1.002l0,0.102c0,3.927 2.781,7.199 6.483,7.935c-0.675,0.184 -1.391,0.287 -2.127,0.287c-0.532,0 -1.022,-0.041 -1.534,-0.144c1.043,3.211 4.029,5.563 7.588,5.625c-2.782,2.188 -6.279,3.476 -10.083,3.476c-0.654,0 -1.288,-0.041 -1.922,-0.122c3.579,2.311 7.833,3.64 12.414,3.64c14.909,0 23.049,-12.332 23.049,-23.049c0,-0.348 0,-0.695 -0.021,-1.043c1.596,-1.145 2.966,-2.577 4.05,-4.193Z" style="fill:#fff;fill-rule:nonzero;"/></g><g><clipPath id="_clip2"><rect x="132.464" y="237.475" width="39.492" height="32.089"/></clipPath><g clip-path="url(#_clip2)"><path d="M171.956,241.279c-1.452,0.634 -3.007,1.084 -4.663,1.268c1.677,-1.002 2.965,-2.597 3.579,-4.479c-1.575,0.921 -3.313,1.596 -5.154,1.964c-1.473,-1.575 -3.579,-2.557 -5.911,-2.557c-4.478,0 -8.098,3.62 -8.098,8.099c0,0.634 0.061,1.248 0.204,1.841c-6.728,-0.327 -12.7,-3.559 -16.709,-8.447c-0.695,1.187 -1.084,2.577 -1.084,4.07c0,2.802 1.432,5.277 3.6,6.729c-1.33,-0.041 -2.577,-0.389 -3.661,-1.002l0,0.102c0,3.927 2.781,7.199 6.483,7.935c-0.675,0.184 -1.391,0.287 -2.127,0.287c-0.532,0 -1.022,-0.041 -1.534,-0.144c1.043,3.211 4.029,5.563 7.588,5.625c-2.782,2.188 -6.279,3.476 -10.083,3.476c-0.654,0 -1.288,-0.041 -1.922,-0.122c3.579,2.311 7.833,3.64 12.414,3.64c14.909,0 23.049,-12.332 23.049,-23.049c0,-0.348 0,-0.695 -0.021,-1.043c1.596,-1.145 2.966,-2.577 4.05,-4.193Z" style="fill:#8b8b8b;fill-rule:nonzero;"/></g><path d="M52.961,271.23l-7.871,0l0,-20.118l-3.932,0l0,-6.933l3.932,0l0,-4.163c0,-5.656 2.221,-9.019 8.529,-9.019l5.252,0l0,6.934l-3.283,0c-2.456,0 -2.618,0.969 -2.618,2.777l-0.009,3.47l5.947,0l-0.696,6.933l-5.251,0l0,20.119Z" style="fill:#8b8b8b;fill-rule:nonzero;"/><path d="M269.676,251.051c0,3.851 0,6.448 -0.09,7.88c-0.179,3.493 -1.164,6.179 -3.134,8.06c-1.97,1.881 -4.567,2.955 -8.06,3.134c-1.433,0.09 -4.119,0.09 -7.881,0.09c-3.85,0 -6.447,0 -7.88,-0.09c-3.493,-0.179 -6.179,-1.164 -8.06,-3.134c-1.88,-1.881 -2.955,-4.567 -3.134,-8.06c-0.09,-1.432 -0.09,-4.119 -0.09,-7.88c0,-3.761 0,-6.448 0.09,-7.881c0.179,-3.492 1.164,-6.179 3.134,-8.059c1.881,-1.881 4.567,-2.956 8.06,-3.135c1.433,-0.089 4.119,-0.089 7.88,-0.089c3.851,0 6.448,0 7.881,0.089c3.493,0.179 6.179,1.164 8.06,3.135c1.88,1.97 2.955,4.567 3.134,8.059c0,1.433 0.09,4.03 0.09,7.881Zm-17.284,-15.761l-6.358,0c-0.627,0 -1.433,0 -2.418,0.089c-0.985,0 -1.881,0.09 -2.597,0.269c-0.717,0.089 -1.343,0.268 -1.791,0.448c-0.806,0.358 -1.523,0.806 -2.239,1.432c-0.627,0.627 -1.075,1.344 -1.433,2.239c-0.179,0.448 -0.358,1.075 -0.448,1.791c-0.089,0.717 -0.179,1.523 -0.268,2.597c0,0.985 -0.09,1.791 -0.09,2.418l0,8.955c0,0.627 0,1.433 0.09,2.418c0,0.985 0.089,1.881 0.268,2.597c0.179,0.717 0.269,1.344 0.448,1.791c0.358,0.806 0.806,1.523 1.433,2.239c0.627,0.627 1.343,1.075 2.239,1.433c0.448,0.179 1.074,0.358 1.791,0.448c0.716,0.089 1.522,0.179 2.597,0.268c1.074,0.09 1.791,0.09 2.418,0.09l8.955,0c0.627,0 1.433,0 2.418,-0.09c0.985,0 1.88,-0.089 2.597,-0.268c0.716,-0.09 1.343,-0.269 1.791,-0.448c0.806,-0.358 1.522,-0.806 2.239,-1.433c0.627,-0.627 1.074,-1.343 1.433,-2.239c0.179,-0.447 0.358,-1.074 0.447,-1.791c0.09,-0.716 0.179,-1.522 0.269,-2.597c0,-0.985 0.089,-1.791 0.089,-2.418l0,-8.955c0,-0.627 0,-1.433 -0.089,-2.418c0,-0.985 -0.09,-1.88 -0.269,-2.597c-0.089,-0.716 -0.268,-1.343 -0.447,-1.791c-0.359,-0.806 -0.806,-1.522 -1.433,-2.239c-0.627,-0.626 -1.344,-1.074 -2.239,-1.432c-0.448,-0.18 -1.075,-0.359 -1.791,-0.448c-0.717,-0.09 -1.523,-0.179 -2.597,-0.269c-0.985,0 -1.791,-0.089 -2.418,-0.089c-0.537,0 -1.433,0 -2.597,0Zm5.015,8.776c1.88,1.88 2.866,4.209 2.866,6.985c0,2.776 -0.986,5.015 -2.866,6.985c-1.881,1.88 -4.209,2.866 -6.985,2.866c-2.776,0 -5.015,-0.986 -6.985,-2.866c-1.881,-1.881 -2.866,-4.209 -2.866,-6.985c0,-2.776 0.985,-5.015 2.866,-6.985c1.88,-1.881 4.209,-2.866 6.985,-2.866c2.776,0 5.104,0.896 6.985,2.866Zm-2.418,11.462c1.254,-1.253 1.881,-2.776 1.881,-4.477c0,-1.702 -0.627,-3.314 -1.881,-4.567c-1.254,-1.254 -2.776,-1.881 -4.567,-1.881c-1.791,0 -3.314,0.627 -4.567,1.881c-1.254,1.253 -1.881,2.776 -1.881,4.567c0,1.791 0.627,3.313 1.881,4.477c1.253,1.254 2.776,1.881 4.567,1.881c1.791,0 3.313,-0.627 4.567,-1.881Zm7.343,-16.388c0.448,0.448 0.717,0.985 0.717,1.612c0,0.627 -0.269,1.164 -0.717,1.612c-0.448,0.448 -0.985,0.717 -1.612,0.717c-0.627,0 -1.164,-0.269 -1.612,-0.717c-0.447,-0.448 -0.716,-0.985 -0.716,-1.612c0,-0.627 0.269,-1.164 0.716,-1.612c0.448,-0.447 0.985,-0.716 1.612,-0.716c0.627,0 1.164,0.269 1.612,0.716Z" style="fill:#8b8b8b;fill-rule:nonzero;"/><path d="M341.707,266.023l0,-22.889l-7.608,0l0,22.889l7.608,0Zm-3.804,-26.014c2.653,0 4.304,-1.757 4.304,-3.954c-0.049,-2.246 -1.651,-3.954 -4.254,-3.954c-2.602,0 -4.303,1.708 -4.303,3.954c0,2.197 1.65,3.954 4.204,3.954l0.049,0Z" style="fill:#8b8b8b;"/><path d="M345.683,266.023l7.607,0l0,-12.782c0,-0.684 0.05,-1.368 0.251,-1.857c0.55,-1.366 1.801,-2.782 3.903,-2.782c2.753,0 3.854,2.099 3.854,5.176l0,12.245l7.607,0l0,-13.124c0,-7.03 -3.753,-10.302 -8.758,-10.302c-4.104,0 -5.906,2.294 -6.907,3.857l0.051,0l0,-3.32l-7.608,0c0.1,2.148 0,22.889 0,22.889Z" style="fill:#8b8b8b;"/><path d="M449.944,237.151c0,0 -12.203,0 -15.266,0.796c-1.64,0.458 -2.99,1.808 -3.449,3.473c-0.795,3.062 -0.795,9.405 -0.795,9.405c0,0 0,6.367 0.795,9.382c0.459,1.664 1.785,2.99 3.449,3.448c3.087,0.82 15.266,0.82 15.266,0.82c0,0 12.227,0 15.29,-0.796c1.664,-0.458 2.99,-1.76 3.424,-3.448c0.82,-3.039 0.82,-9.382 0.82,-9.382c0,0 0.024,-6.367 -0.82,-9.429c-0.434,-1.665 -1.76,-2.991 -3.424,-3.425c-3.063,-0.844 -15.29,-0.844 -15.29,-0.844Zm-3.883,7.814l10.153,5.86l-10.153,5.836l0,-11.696Z" style="fill:#8b8b8b;fill-rule:nonzero;"/></g><circle cx="50.521" cy="50.61" r="34.519" style="fill:#36579f;"/><circle cx="50.521" cy="251.61" r="34.519" style="fill:none;"/><path d="M52.961,70.23l-7.871,0l0,-20.118l-3.932,0l0,-6.933l3.932,0l0,-4.163c0,-5.656 2.221,-9.019 8.529,-9.019l5.252,0l0,6.934l-3.283,0c-2.456,0 -2.618,0.969 -2.618,2.777l-0.009,3.47l5.947,0l-0.696,6.933l-5.251,0l0,20.119Z" style="fill:#fff;fill-rule:nonzero;"/><path d="M269.676,50.051c0,3.851 0,6.448 -0.09,7.88c-0.179,3.493 -1.164,6.179 -3.134,8.06c-1.97,1.881 -4.567,2.955 -8.06,3.134c-1.433,0.09 -4.119,0.09 -7.881,0.09c-3.85,0 -6.447,0 -7.88,-0.09c-3.493,-0.179 -6.179,-1.164 -8.06,-3.134c-1.88,-1.881 -2.955,-4.567 -3.134,-8.06c-0.09,-1.432 -0.09,-4.119 -0.09,-7.88c0,-3.761 0,-6.448 0.09,-7.881c0.179,-3.492 1.164,-6.179 3.134,-8.059c1.881,-1.881 4.567,-2.956 8.06,-3.135c1.433,-0.089 4.119,-0.089 7.88,-0.089c3.851,0 6.448,0 7.881,0.089c3.493,0.179 6.179,1.164 8.06,3.135c1.88,1.97 2.955,4.567 3.134,8.059c0,1.433 0.09,4.03 0.09,7.881Zm-17.284,-15.761l-6.358,0c-0.627,0 -1.433,0 -2.418,0.089c-0.985,0 -1.881,0.09 -2.597,0.269c-0.717,0.089 -1.343,0.268 -1.791,0.448c-0.806,0.358 -1.523,0.806 -2.239,1.432c-0.627,0.627 -1.075,1.344 -1.433,2.239c-0.179,0.448 -0.358,1.075 -0.448,1.791c-0.089,0.717 -0.179,1.523 -0.268,2.597c0,0.985 -0.09,1.791 -0.09,2.418l0,8.955c0,0.627 0,1.433 0.09,2.418c0,0.985 0.089,1.881 0.268,2.597c0.179,0.717 0.269,1.344 0.448,1.791c0.358,0.806 0.806,1.523 1.433,2.239c0.627,0.627 1.343,1.075 2.239,1.433c0.448,0.179 1.074,0.358 1.791,0.448c0.716,0.089 1.522,0.179 2.597,0.268c1.074,0.09 1.791,0.09 2.418,0.09l8.955,0c0.627,0 1.433,0 2.418,-0.09c0.985,0 1.88,-0.089 2.597,-0.268c0.716,-0.09 1.343,-0.269 1.791,-0.448c0.806,-0.358 1.522,-0.806 2.239,-1.433c0.627,-0.627 1.074,-1.343 1.433,-2.239c0.179,-0.447 0.358,-1.074 0.447,-1.791c0.09,-0.716 0.179,-1.522 0.269,-2.597c0,-0.985 0.089,-1.791 0.089,-2.418l0,-8.955c0,-0.627 0,-1.433 -0.089,-2.418c0,-0.985 -0.09,-1.88 -0.269,-2.597c-0.089,-0.716 -0.268,-1.343 -0.447,-1.791c-0.359,-0.806 -0.806,-1.522 -1.433,-2.239c-0.627,-0.626 -1.344,-1.074 -2.239,-1.432c-0.448,-0.18 -1.075,-0.359 -1.791,-0.448c-0.717,-0.09 -1.523,-0.179 -2.597,-0.269c-0.985,0 -1.791,-0.089 -2.418,-0.089c-0.537,0 -1.433,0 -2.597,0Zm5.015,8.776c1.88,1.88 2.866,4.209 2.866,6.985c0,2.776 -0.986,5.015 -2.866,6.985c-1.881,1.88 -4.209,2.866 -6.985,2.866c-2.776,0 -5.015,-0.986 -6.985,-2.866c-1.881,-1.881 -2.866,-4.209 -2.866,-6.985c0,-2.776 0.985,-5.015 2.866,-6.985c1.88,-1.881 4.209,-2.866 6.985,-2.866c2.776,0 5.104,0.896 6.985,2.866Zm-2.418,11.462c1.254,-1.253 1.881,-2.776 1.881,-4.477c0,-1.702 -0.627,-3.314 -1.881,-4.567c-1.254,-1.254 -2.776,-1.881 -4.567,-1.881c-1.791,0 -3.314,0.627 -4.567,1.881c-1.254,1.253 -1.881,2.776 -1.881,4.567c0,1.791 0.627,3.313 1.881,4.477c1.253,1.254 2.776,1.881 4.567,1.881c1.791,0 3.313,-0.627 4.567,-1.881Zm7.343,-16.388c0.448,0.448 0.717,0.985 0.717,1.612c0,0.627 -0.269,1.164 -0.717,1.612c-0.448,0.448 -0.985,0.717 -1.612,0.717c-0.627,0 -1.164,-0.269 -1.612,-0.717c-0.447,-0.448 -0.716,-0.985 -0.716,-1.612c0,-0.627 0.269,-1.164 0.716,-1.612c0.448,-0.447 0.985,-0.716 1.612,-0.716c0.627,0 1.164,0.269 1.612,0.716Z" style="fill:#fff;fill-rule:nonzero;"/><path d="M342.198,65.023l0,-22.889l-7.608,0l0,22.889l7.608,0Zm-3.804,-26.014c2.653,0 4.304,-1.757 4.304,-3.954c-0.05,-2.246 -1.651,-3.954 -4.254,-3.954c-2.602,0 -4.304,1.708 -4.304,3.954c0,2.197 1.651,3.954 4.204,3.954l0.05,0Z" style="fill:#fff;"/><path d="M346.173,65.023l7.608,0l0,-12.782c0,-0.684 0.049,-1.368 0.25,-1.857c0.55,-1.366 1.802,-2.782 3.904,-2.782c2.753,0 3.854,2.099 3.854,5.176l0,12.245l7.607,0l0,-13.124c0,-7.03 -3.753,-10.302 -8.759,-10.302c-4.104,0 -5.906,2.294 -6.907,3.857l0.051,0l0,-3.32l-7.607,0c0.099,2.148 0,22.889 0,22.889l-0.001,0Z" style="fill:#fff;"/><path d="M450.412,37.21c0,0 -12.203,0 -15.266,0.796c-1.64,0.458 -2.99,1.809 -3.448,3.473c-0.796,3.063 -0.796,9.405 -0.796,9.405c0,0 0,6.367 0.796,9.382c0.458,1.664 1.784,2.99 3.448,3.448c3.087,0.82 15.266,0.82 15.266,0.82c0,0 12.227,0 15.29,-0.796c1.664,-0.458 2.99,-1.76 3.424,-3.448c0.82,-3.039 0.82,-9.382 0.82,-9.382c0,0 0.024,-6.366 -0.82,-9.429c-0.434,-1.664 -1.76,-2.991 -3.424,-3.425c-3.063,-0.844 -15.29,-0.844 -15.29,-0.844Zm-3.883,7.814l10.153,5.86l-10.153,5.836l0,-11.696Z" style="fill:#fff;fill-rule:nonzero;"/></g></svg>